{
	"asset":{
		"generator":"Khronos glTF Blender I/O v3.6.27",
		"version":"2.0"
	},
	"scene":0,
	"scenes":[
		{
			"name":"Scene",
			"nodes":[
				0,
				1,
				2
			]
		}
	],
	"nodes":[
		{
			"name":"Light.001",
			"rotation":[
				0.16907577216625214,
				0.7558803558349609,
				-0.27217137813568115,
				0.5709474682807922
			],
			"translation":[
				4.076245307922363,
				5.903861999511719,
				-1.0054539442062378
			]
		},
		{
			"name":"Camera.001",
			"rotation":[
				0.483536034822464,
				0.33687159419059753,
				-0.20870360732078552,
				0.7804827094078064
			],
			"translation":[
				7.358891487121582,
				4.958309173583984,
				6.925790786743164
			]
		},
		{
			"mesh":0,
			"name":"bun_zipper",
			"rotation":[
				0.6532815098762512,
				-0.27059805393218994,
				0.27059805393218994,
				0.6532815098762512
			],
			"scale":[
				10.812280654907227,
				10.812280654907227,
				10.81227970123291
			],
			"translation":[
				0,
				-1.0115001201629639,
				0
			]
		}
	],
	"meshes":[
		{
			"name":"bun_zipper",
			"primitives":[
				{
					"attributes":{
						"POSITION":0,
						"NORMAL":1
					},
					"indices":2
				}
			]
		}
	],
	"accessors":[
		{
			"bufferView":0,
			"componentType":5126,
			"count":34834,
			"max":[
				0.06100910156965256,
				0.05879969894886017,
				-0.03298740088939667
			],
			"min":[
				-0.09468989819288254,
				-0.061873599886894226,
				-0.1873210072517395
			],
			"type":"VEC3"
		},
		{
			"bufferView":1,
			"componentType":5126,
			"count":34834,
			"type":"VEC3"
		},
		{
			"bufferView":2,
			"componentType":5123,
			"count":208353,
			"type":"SCALAR"
		}
	],
	"bufferViews":[
		{
			"buffer":0,
			"byteLength":418008,
			"byteOffset":0,
			"target":34962
		},
		{
			"buffer":0,
			"byteLength":418008,
			"byteOffset":418008,
			"target":34962
		},
		{
			"buffer":0,
			"byteLength":416706,
			"byteOffset":836016,
			"target":34963
		}
	],
	"buffers":[
		{
			"byteLength":1252724,
			"uri":"data:application/octet-stream;base64,"
		}
	]
}
