{
	"asset":{
		"generator":"Khronos glTF Blender I/O v3.6.27",
		"version":"2.0"
	},
	"scene":0,
	"scenes":[
		{
			"name":"Scene",
			"nodes":[
				0,
				1,
				2
			]
		}
	],
	"nodes":[
		{
			"name":"Light.001",
			"rotation":[
				0.16907578706741333,
				0.7558803558349609,
				-0.27217140793800354,
				0.5709474682807922
			],
			"translation":[
				4.076245307922363,
				5.903861999511719,
				-1.0054539442062378
			]
		},
		{
			"name":"Camera.001",
			"rotation":[
				0.483536034822464,
				0.33687159419059753,
				-0.20870360732078552,
				0.7804827094078064
			],
			"translation":[
				7.358891487121582,
				4.958309173583984,
				6.925790786743164
			]
		},
		{
			"mesh":0,
			"name":"Plane.002",
			"rotation":[
				0.7071068286895752,
				0,
				0,
				0.7071068286895752
			],
			"scale":[
				2,
				2,
				2
			]
		}
	],
	"meshes":[
		{
			"name":"Plane.003",
			"primitives":[
				{
					"attributes":{
						"POSITION":0,
						"NORMAL":1,
						"TEXCOORD_0":2
					},
					"indices":3
				}
			]
		}
	],
	"accessors":[
		{
			"bufferView":0,
			"componentType":5126,
			"count":8464,
			"max":[
				1.0186834335327148,
				0.024084342643618584,
				1.0222111940383911
			],
			"min":[
				-1.0150614976882935,
				-0.023696335032582283,
				-1.0216618776321411
			],
			"type":"VEC3"
		},
		{
			"bufferView":1,
			"componentType":5126,
			"count":8464,
			"type":"VEC3"
		},
		{
			"bufferView":2,
			"componentType":5126,
			"count":8464,
			"type":"VEC2"
		},
		{
			"bufferView":3,
			"componentType":5123,
			"count":12696,
			"type":"SCALAR"
		}
	],
	"bufferViews":[
		{
			"buffer":0,
			"byteLength":101568,
			"byteOffset":0,
			"target":34962
		},
		{
			"buffer":0,
			"byteLength":101568,
			"byteOffset":101568,
			"target":34962
		},
		{
			"buffer":0,
			"byteLength":67712,
			"byteOffset":203136,
			"target":34962
		},
		{
			"buffer":0,
			"byteLength":25392,
			"byteOffset":270848,
			"target":34963
		}
	],
	"buffers":[
		{
			"byteLength":296240,
			"uri":"data:application/octet-stream;base64,"
		}
	]
}
