{
	"asset":{
		"generator":"Khronos glTF Blender I/O v3.6.27",
		"version":"2.0"
	},
	"scene":0,
	"scenes":[
		{
			"name":"Scene",
			"nodes":[
				0,
				1,
				2
			]
		}
	],
	"nodes":[
		{
			"name":"Light.001",
			"rotation":[
				0.16907578706741333,
				0.7558803558349609,
				-0.27217140793800354,
				0.5709474682807922
			],
			"translation":[
				4.076245307922363,
				5.903861999511719,
				-1.0054539442062378
			]
		},
		{
			"name":"Camera.001",
			"rotation":[
				0.483536034822464,
				0.33687159419059753,
				-0.20870360732078552,
				0.7804827094078064
			],
			"translation":[
				7.358891487121582,
				4.958309173583984,
				6.925790786743164
			]
		},
		{
			"mesh":0,
			"name":"Plane.001",
			"rotation":[
				0.6573949456214905,
				-0.6573948264122009,
				-0.26044583320617676,
				0.26044586300849915
			],
			"scale":[
				0.9275603294372559,
				0.9275603294372559,
				0.9275603294372559
			],
			"translation":[
				0,
				0.7734332084655762,
				0
			]
		}
	],
	"meshes":[
		{
			"name":"Plane.002",
			"primitives":[
				{
					"attributes":{
						"POSITION":0,
						"NORMAL":1,
						"TEXCOORD_0":2
					},
					"indices":3
				}
			]
		}
	],
	"accessors":[
		{
			"bufferView":0,
			"componentType":5126,
			"count":2209,
			"max":[
				1,
				0,
				1
			],
			"min":[
				-1,
				0,
				-1
			],
			"type":"VEC3"
		},
		{
			"bufferView":1,
			"componentType":5126,
			"count":2209,
			"type":"VEC3"
		},
		{
			"bufferView":2,
			"componentType":5126,
			"count":2209,
			"type":"VEC2"
		},
		{
			"bufferView":3,
			"componentType":5123,
			"count":12696,
			"type":"SCALAR"
		}
	],
	"bufferViews":[
		{
			"buffer":0,
			"byteLength":26508,
			"byteOffset":0,
			"target":34962
		},
		{
			"buffer":0,
			"byteLength":26508,
			"byteOffset":26508,
			"target":34962
		},
		{
			"buffer":0,
			"byteLength":17672,
			"byteOffset":53016,
			"target":34962
		},
		{
			"buffer":0,
			"byteLength":25392,
			"byteOffset":70688,
			"target":34963
		}
	],
	"buffers":[
		{
			"byteLength":96080,
			"uri":"data:application/octet-stream;base64,"
		}
	]
}
